<svg xmlns="http://www.w3.org/2000/svg" width="49.88" height="48.871" viewBox="0 0 49.88 48.871">
    <g data-name="Group 9388">
        <path data-name="Path 25590" d="M149.9 242.295a.752.752 0 0 1-.151-1.49l10.16-2.091a.752.752 0 0 1 .3 1.474l-10.16 2.091a.756.756 0 0 1-.152.016z" transform="translate(-144.258 -218.762)" style="fill:#fff"/>
        <path data-name="Path 25591" d="M454.838 238.247a.754.754 0 0 1-.2-.027l-9.32-2.539a.752.752 0 1 1 .4-1.452l9.32 2.539a.753.753 0 0 1-.2 1.479z" transform="translate(-410.366 -214.715)" style="fill:#fff"/>
        <path data-name="Path 25592" d="M167.775 319.169a.73.73 0 0 1-.12-.01l-19.592-3.153a.753.753 0 0 1-.633-.743v-11.5a.752.752 0 0 1 .927-.732l12.463 2.977 6.323-9.714a.753.753 0 0 1 1.383.411v21.715a.752.752 0 0 1-.753.752zm-18.839-4.547 18.086 2.911v-18.3l-5.23 8.034a.753.753 0 0 1-.806.321l-12.051-2.879z" transform="translate(-142.712 -270.298)" style="fill:#fff"/>
        <path data-name="Path 25593" d="M344.454 319.161a.753.753 0 0 1-.753-.753v-21.715a.752.752 0 0 1 1.39-.4l6.079 9.7 12.453-2.975a.752.752 0 0 1 .927.732v11.5a.753.753 0 0 1-.631.743l-19.344 3.153a.752.752 0 0 1-.121.01zm.753-19.849v18.211l17.839-2.908V304.7l-12.051 2.879a.753.753 0 0 1-.813-.332z" transform="translate(-319.39 -270.29)" style="fill:#fff"/>
        <path data-name="Path 25594" d="M350.822 274.934a.752.752 0 0 1-.638-.353l-6.366-10.159a.752.752 0 0 1 .5-1.139l19.409-3.624a.752.752 0 0 1 .815.41l4.654 9.555a.752.752 0 0 1-.5 1.061L351 274.914a.774.774 0 0 1-.175.02zm-5.142-10.374 5.492 8.764 16.26-3.885-3.992-8.2z" transform="translate(-319.392 -237.619)" style="fill:#fff"/>
        <path data-name="Path 25595" d="M118.6 274.933a.748.748 0 0 1-.175-.021l-17.7-4.228a.752.752 0 0 1-.495-1.075l4.89-9.555a.754.754 0 0 1 .808-.4l19.42 3.624a.752.752 0 0 1 .492 1.15l-6.613 10.159a.752.752 0 0 1-.631.342zm-16.592-5.49 16.251 3.883 5.709-8.77-17.762-3.315z" transform="translate(-100.15 -237.618)" style="fill:#fff"/>
        <path data-name="Path 25596" d="M474.925 179.27A1.075 1.075 0 1 1 476 178.2a1.075 1.075 0 0 1-1.075 1.07z" transform="translate(-436.547 -163.33)" style="fill:#fff"/>
        <path data-name="Path 25597" d="M550.305 60.813a1.075 1.075 0 1 1 1.075-1.075 1.075 1.075 0 0 1-1.075 1.075z" transform="translate(-504.403 -56.697)" style="fill:#fff"/>
        <path data-name="Path 25598" d="M141.075 211.58a1.075 1.075 0 1 1 1.075-1.075 1.075 1.075 0 0 1-1.075 1.075z" transform="translate(-136.022 -192.415)" style="fill:#fff"/>
        <path data-name="Path 25599" d="M227.225 50.044a1.075 1.075 0 1 1 1.075-1.075 1.075 1.075 0 0 1-1.075 1.075z" transform="translate(-213.573 -47.003)" style="fill:#fff"/>
        <path data-name="Path 25600" d="m152.29 42.015-1.52-1.52 1.52-1.52 1.52 1.52z" transform="translate(-145.717 -38.974)" style="fill:#fff"/>
        <path data-name="Path 25601" d="m541.84 169.391-1.52-1.52 1.52-1.52 1.52 1.52z" transform="translate(-496.382 -153.635)" style="fill:#fff"/>
        <path data-name="Path 25602" d="m432.29 52.784-1.52-1.52 1.52-1.52 1.52 1.52z" transform="translate(-397.768 -48.668)" style="fill:#fff"/>
        <path data-name="Path 25603" d="M296.145 105.47a.75.75 0 0 1-.532-.22l-6.081-6.081a.752.752 0 0 1 0-1.064l8.361-8.362a.753.753 0 0 1 1.064 0l6.081 6.081a.753.753 0 0 1 0 1.064l-8.362 8.362a.748.748 0 0 1-.531.22zm-5.017-6.833 5.017 5.017 7.3-7.3-5.017-5.017z" transform="translate(-270.429 -84.477)" style="fill:#fff"/>
        <path data-name="Path 25604" d="M254.27 66.636a.752.752 0 0 1-.532-.22l-2.28-2.28a.753.753 0 0 1 0-1.064l11.4-11.4a.753.753 0 0 1 1.064 0l2.28 2.28a.753.753 0 0 1 0 1.064l-11.4 11.4a.75.75 0 0 1-.532.22zm-1.216-3.036 1.216 1.216 10.337-10.337-1.216-1.216z" transform="translate(-236.156 -50.203)" style="fill:#fff"/>
        <path data-name="Path 25605" d="M252.965 96.154a2.758 2.758 0 0 1-.174-5.513h.1a7.774 7.774 0 0 1 3.035 1.221c.429.232.834.451 1.122.579a.753.753 0 0 1 .092 1.328c-.277.172-.656.453-1.057.75-1.285.953-2.183 1.582-2.919 1.632-.068 0-.136.007-.2.007zm-.07-4.011a1.257 1.257 0 1 0 .17 2.5 9.282 9.282 0 0 0 2.125-1.339l.106-.079-.083-.045a9.49 9.49 0 0 0-2.319-1.04z" transform="translate(-235.158 -85.48)" style="fill:#fff"/>
        <path data-name="Path 25606" d="M289.3 56.616a.753.753 0 0 1-.64-.357 18.752 18.752 0 0 0-.727-1.033c-.954-1.3-1.584-2.209-1.635-2.944a2.882 2.882 0 0 1 .657-2.053 2.694 2.694 0 0 1 1.9-.98 2.812 2.812 0 0 1 2.949 2.655c.051.736-.45 1.711-1.218 3.114-.24.438-.466.851-.6 1.15a.752.752 0 0 1-.637.445.438.438 0 0 1-.051 0zm-.26-5.867h-.082a1.2 1.2 0 0 0-.845.441 1.385 1.385 0 0 0-.312.987 9.524 9.524 0 0 0 1.347 2.157l.056.076.064-.116a9.267 9.267 0 0 0 1.036-2.289 1.312 1.312 0 0 0-1.263-1.259z" transform="translate(-267.712 -48.218)" style="fill:#fff"/>
        <path data-name="Path 25607" d="M335.455 141.241a.752.752 0 0 1-.532-.22l-6.081-6.081a.752.752 0 0 1 1.064-1.064l6.081 6.081a.752.752 0 0 1-.532 1.284z" transform="translate(-305.815 -124.203)" style="fill:#fff"/>
        <path data-name="Path 25608" d="M481.051 61.317a.751.751 0 0 1-.386-.107l-2.948-1.769a1.322 1.322 0 0 1 0-2.267l2.466-1.48-1.935-1.451a1.33 1.33 0 0 1 .2-2.248l1.562-.781a.752.752 0 1 1 .673 1.346l-1.3.652 1.894 1.42a1.329 1.329 0 0 1 .529 1.058v.038a1.329 1.329 0 0 1-.642 1.133l-2.411 1.446 2.687 1.612a.752.752 0 0 1-.388 1.4z" transform="translate(-439.45 -49.92)" style="fill:#fff"/>
        <path data-name="Path 25609" d="M168.751 115.15a.751.751 0 0 1-.386-.107l-2.948-1.769a1.322 1.322 0 0 1 0-2.267l2.467-1.48-1.935-1.451a1.33 1.33 0 0 1 .2-2.249l1.562-.781a.752.752 0 1 1 .673 1.346l-1.3.652 1.894 1.42a1.329 1.329 0 0 1 .529 1.058v.038a1.33 1.33 0 0 1-.641 1.133l-2.411 1.447 2.687 1.612a.753.753 0 0 1-.388 1.4z" transform="translate(-158.324 -98.378)" style="fill:#fff"/>
        <path data-name="Path 25610" d="M456.292 441.4a.752.752 0 0 1-.106-1.5l7.525-1.075a.752.752 0 0 1 .213 1.49L456.4 441.4a.777.777 0 0 1-.108 0z" transform="translate(-420.065 -398.91)" style="fill:#fff"/>
        <path data-name="Path 25611" d="M162.277 441.4a.708.708 0 0 1-.107-.008l-7.525-1.075a.752.752 0 1 1 .212-1.49l7.525 1.075a.752.752 0 0 1-.105 1.5z" transform="translate(-148.623 -398.91)" style="fill:#fff"/>
    </g>
</svg>
