<svg xmlns="http://www.w3.org/2000/svg" width="46.446" height="39.468" viewBox="0 0 46.446 39.468">
    <path data-name="Path 25439" d="M132.919 320.659h-7.03a1.041 1.041 0 0 1-1.037-1.026l-.016-1.441-1.932-.9a2.737 2.737 0 0 0-1.769-.149l-9.157 2.317a13.609 13.609 0 0 1-9.422-1.021l-13.648-6.824a2.552 2.552 0 0 1 2.076-4.657l9.713 3.012a2.573 2.573 0 0 1 2.125-2.173l9.777-1.63 4-1.058a9.139 9.139 0 0 1 4.542-.031l3.565.891-.022-2.011a.977.977 0 0 1 .3-.717 1.007 1.007 0 0 1 .738-.284h7.2a.987.987 0 0 1 1.023.99v15.675a1.027 1.027 0 0 1-1.023 1.037zm-12.111-14.268a7.777 7.777 0 0 0-3.867.027l-4.027 1.065a.619.619 0 0 1-.062.013l-9.808 1.635a1.218 1.218 0 0 0-.913.7 1.2 1.2 0 0 0-.05.874v.013a1.271 1.271 0 0 0 .135.282 1.2 1.2 0 0 0 1.025.562h6.973a.677.677 0 1 1 0 1.354h-6.973a2.568 2.568 0 0 1-2.162-1.181 2.687 2.687 0 0 1-.155-.277l-10.371-3.217-.055-.02a1.2 1.2 0 0 0-.988 2.18l13.648 6.824a12.256 12.256 0 0 0 8.484.919l9.157-2.317a4.1 4.1 0 0 1 2.656.227h.011l1.349.628-.1-9.321zm11.781-2.08h-6.552l.163 14.989h6.386z" transform="translate(-87.496 -281.191)" style="fill:#16243d"/>
    <path data-name="Path 25440" d="M385.15 144a.677.677 0 0 1 .95-.121l8.891 6.883a.677.677 0 1 1-.829 1.071l-8.891-6.883a.677.677 0 0 1-.121-.95z" transform="translate(-375.123 -136.059)" style="fill:#2563eb"/>
    <path data-name="Path 25441" d="M384.8 125.588a2.721 2.721 0 1 1 1.8-1.033 2.716 2.716 0 0 1-1.8 1.033zm1.008-2.867a1.364 1.364 0 0 0-1.35-1.19 1.384 1.384 0 0 0-.173.011 1.362 1.362 0 1 0 1.524 1.179z" transform="translate(-366.75 -114.579)" style="fill:#2563eb"/>
    <path data-name="Path 25442" d="M445.148 199.046a2.719 2.719 0 1 1-1.8 1.032 2.717 2.717 0 0 1 1.8-1.032zm-1.008 2.867a1.362 1.362 0 1 0 1.352-1.534 1.387 1.387 0 0 0-.173.011 1.364 1.364 0 0 0-1.179 1.523z" transform="translate(-433.183 -186.453)" style="fill:#2563eb"/>
    <path data-name="Path 25443" d="M310.468 70.572a2.384 2.384 0 0 1 0-3.794 2.922 2.922 0 0 0 .58-.858 3.012 3.012 0 0 0-.071-1.083 2.336 2.336 0 0 1 1.872-3.219 2.972 2.972 0 0 0 .956-.468 2.973 2.973 0 0 0 .467-.956 2.336 2.336 0 0 1 3.219-1.872 3.013 3.013 0 0 0 1.083.071 2.935 2.935 0 0 0 .858-.58 2.383 2.383 0 0 1 3.794 0 2.922 2.922 0 0 0 .858.58 3.011 3.011 0 0 0 1.083-.071 2.336 2.336 0 0 1 3.219 1.872 2.971 2.971 0 0 0 .468.956 2.974 2.974 0 0 0 .956.467 2.336 2.336 0 0 1 1.872 3.219 3.021 3.021 0 0 0-.071 1.083 2.935 2.935 0 0 0 .58.858 2.384 2.384 0 0 1 0 3.794 2.92 2.92 0 0 0-.58.858 3.013 3.013 0 0 0 .071 1.083 2.336 2.336 0 0 1-1.872 3.219 1.64 1.64 0 0 0-1.424 1.424 2.336 2.336 0 0 1-3.219 1.872 3.021 3.021 0 0 0-1.083-.071 2.934 2.934 0 0 0-.858.58 2.384 2.384 0 0 1-3.794 0 2.922 2.922 0 0 0-.858-.58 3.012 3.012 0 0 0-1.083.071 2.336 2.336 0 0 1-3.219-1.872 1.64 1.64 0 0 0-1.424-1.424 2.336 2.336 0 0 1-1.871-3.219 3.021 3.021 0 0 0 .071-1.083 2.908 2.908 0 0 0-.58-.858zm1.039-.869a3.759 3.759 0 0 1 .85 1.377 3.877 3.877 0 0 1-.045 1.662 2.256 2.256 0 0 0-.033 1.157c.133.23.591.4 1.035.561a2.872 2.872 0 0 1 2.229 2.229c.162.443.331.9.561 1.035a2.252 2.252 0 0 0 1.157-.032 3.871 3.871 0 0 1 1.662-.045 3.755 3.755 0 0 1 1.377.85c.368.307.747.625 1.028.625s.661-.318 1.028-.625a3.759 3.759 0 0 1 1.377-.85 2.363 2.363 0 0 1 .614-.075 6.21 6.21 0 0 1 1.048.12 2.256 2.256 0 0 0 1.157.032c.23-.133.4-.591.561-1.035a2.872 2.872 0 0 1 2.229-2.229c.443-.162.9-.331 1.035-.561a2.252 2.252 0 0 0-.032-1.157 3.871 3.871 0 0 1-.045-1.662 3.753 3.753 0 0 1 .85-1.377c.307-.368.625-.747.625-1.028s-.318-.661-.625-1.028a3.758 3.758 0 0 1-.85-1.377 3.876 3.876 0 0 1 .045-1.662 2.256 2.256 0 0 0 .032-1.157c-.133-.23-.591-.4-1.035-.561a2.872 2.872 0 0 1-2.229-2.229c-.162-.443-.331-.9-.561-1.035a2.252 2.252 0 0 0-1.157.032 3.871 3.871 0 0 1-1.662.045 3.754 3.754 0 0 1-1.377-.85c-.368-.307-.748-.625-1.029-.625s-.661.318-1.028.625a3.758 3.758 0 0 1-1.377.85 3.877 3.877 0 0 1-1.662-.045 2.256 2.256 0 0 0-1.157-.032c-.23.133-.4.591-.561 1.035a2.872 2.872 0 0 1-2.229 2.229c-.443.162-.9.331-1.035.561a2.251 2.251 0 0 0 .033 1.157 3.872 3.872 0 0 1 .045 1.662 3.753 3.753 0 0 1-.85 1.377c-.307.368-.625.747-.625 1.028s.319.661.626 1.025z" transform="translate(-306.321 -56.874)" style="fill:#2563eb"/>
</svg>
