<svg xmlns="http://www.w3.org/2000/svg" width="46.88" height="44.649" viewBox="0 0 46.88 44.649">
    <g data-name="Group 9387">
        <path data-name="Path 24964" d="M180.837 130.57a15.508 15.508 0 0 0-11.039 4.574 14.155 14.155 0 0 0 0 19.989 12.791 12.791 0 0 0 18.092 0l-1.1-1.1a11.229 11.229 0 0 1-15.884 0 12.591 12.591 0 0 1 0-17.78 14.045 14.045 0 0 1 19.868 0 15.727 15.727 0 0 1 0 22.209 17.434 17.434 0 0 1-15.781 4.8l.327-1.191a.781.781 0 0 0-1.007-.946l-3.381 1.167a.78.78 0 0 0-.359 1.22l2.267 2.887a.779.779 0 0 0 .614.3.718.718 0 0 0 .154-.016.782.782 0 0 0 .6-.558l.372-1.351a19.3 19.3 0 0 0 3.839.395 18.981 18.981 0 0 0 13.461-5.6 17.289 17.289 0 0 0 0-24.417 15.5 15.5 0 0 0-11.037-4.574zm-7.729 33.642-.634-.806.944-.326z" transform="translate(-158.652 -122.043)" style="fill:#16243d"/>
        <path data-name="Path 24965" d="M92.4 69.106a19.466 19.466 0 0 1 1.976-25.371 21.656 21.656 0 0 1 7.2-4.782l.51 1.514a.779.779 0 0 0 .632.524.714.714 0 0 0 .108.008.781.781 0 0 0 .643-.339l2.212-3.216a.781.781 0 0 0-.4-1.184l-3.708-1.222a.78.78 0 0 0-.984.991l.487 1.444a23.208 23.208 0 0 0-7.809 5.159 21.018 21.018 0 0 0-2.134 27.4zm11.408-31.689-.737 1.072-.5-1.479z" transform="translate(-87.045 -34.998)" style="fill:#16243d"/>
        <path data-name="Path 24966" d="m400.785 51.25-.371 1.517a21.789 21.789 0 0 1 10.234 5.769 24.356 24.356 0 0 1 5.684 25.445l-1.39-.556a.78.78 0 0 0-1.052.9l.781 3.491a.776.776 0 0 0 .459.549.777.777 0 0 0 .713-.055l3.123-1.93a.78.78 0 0 0-.12-1.389l-1.063-.426a25.913 25.913 0 0 0-6.03-27.128 23.342 23.342 0 0 0-10.966-6.183zm15.17 35.15-.218-.976 1.09.436z" transform="translate(-372.455 -49.8)" style="fill:#16243d"/>
        <path data-name="Path 25532" d="M.988-9.045h6.03v.015a9.836 9.836 0 0 1-.607 1H4.805a2.544 2.544 0 0 1 .451 1.073h1.717q.03.007.03.03-.577.977-.592.984H5.3a3.21 3.21 0 0 1-.422 1.213 2.825 2.825 0 0 1-.991.932 3.511 3.511 0 0 1-1.672.474v.015a2.759 2.759 0 0 0 .392.585L5.582 1.35v.192a.026.026 0 0 1-.03.03H4.243Q.706-3.1.706-3.119v-.947L.721-4.1a4.515 4.515 0 0 0 .732.052 2.274 2.274 0 0 0 2.465-1.461 1.331 1.331 0 0 0 .074-.437H.41q-.03 0-.03-.037.592-.977.607-.977h2.849v-.015a1.762 1.762 0 0 0-.947-.873 2.652 2.652 0 0 0-.9-.185H.4v-.037q.573-.975.588-.975z" transform="translate(18.397 27.227)" style="fill:#2563eb;stroke:#2563eb;stroke-width:.2px"/>
    </g>
</svg>
